<svg version="1.1" id="Layer_1" xmlns="http://www.w3.org/2000/svg" xmlns:xlink="http://www.w3.org/1999/xlink" x="0px" y="0px"
	 width="100%" viewBox="0 0 1024 713" enable-background="new 0 0 1024 713" xml:space="preserve">
<path fill="#010101" opacity="1.000000" stroke="none" 
	d="
M645.000000,714.000000 
	C430.000061,714.000000 215.500122,714.000000 1.000144,714.000000 
	C1.000096,476.333466 1.000096,238.666931 1.000048,1.000303 
	C342.333099,1.000202 683.666199,1.000202 1024.999512,1.000101 
	C1024.999634,238.666367 1024.999634,476.332733 1024.999756,713.999512 
	C898.500000,714.000000 772.000000,714.000000 645.000000,714.000000 
M584.795654,552.190613 
	C584.795654,552.190613 585.037598,552.130066 585.037598,552.130066 
	C585.037598,552.130066 584.771301,552.319275 585.094299,551.586304 
	C579.279480,537.637207 570.457947,525.916199 558.600647,516.590820 
	C556.711365,515.104980 553.922424,514.301147 551.466553,514.072754 
	C535.578735,512.595154 519.659973,511.451874 503.769836,509.997223 
	C499.293365,509.587463 494.878693,508.502228 490.435669,507.726807 
	C490.083160,508.251129 489.730652,508.775421 489.378143,509.299713 
	C490.054352,509.493652 490.905060,509.489899 491.381287,509.910309 
	C505.008881,521.941040 514.760071,536.178772 517.289795,554.700439 
	C517.518982,556.378845 519.554382,558.419617 521.252380,559.196716 
	C545.566589,570.324585 569.967041,581.263916 594.346741,592.248657 
	C594.772949,591.972961 595.199097,591.697205 595.625305,591.421448 
	C594.266052,585.527161 592.755859,579.662292 591.596558,573.728943 
	C590.713074,569.207275 588.588196,565.565430 584.761597,563.156189 
	C576.485413,557.945618 568.353882,552.399353 559.652649,548.000122 
	C551.275269,543.764587 542.255066,540.800354 533.517334,537.277588 
	C551.663940,538.944946 569.309937,542.314880 584.795654,552.190613 
M496.023376,287.345428 
	C475.148834,284.380127 454.274292,281.414856 433.399750,278.449554 
	C433.157593,278.677155 432.915436,278.904724 432.673279,279.132294 
	C441.268311,284.999146 449.863342,290.865997 458.422791,296.708588 
	C435.296387,300.949341 412.203979,305.794647 390.867340,319.338470 
	C404.025238,317.867859 415.915283,316.538910 427.805298,315.209991 
	C427.923584,315.616608 428.041870,316.023193 428.160156,316.429810 
	C392.840454,329.968262 366.041199,353.764221 345.248474,385.038635 
	C359.221710,377.594543 373.473358,371.073090 389.936707,366.236450 
	C359.307800,397.151703 347.178955,435.437164 337.587158,475.123383 
	C339.245819,474.235809 340.651093,473.094452 341.933258,471.828400 
	C350.637207,463.234192 359.315155,454.613647 367.985229,445.979706 
	C367.985229,445.979706 367.965271,445.949738 368.612091,446.600433 
	C360.189209,483.998444 363.583710,520.080688 380.621948,554.705811 
	C381.688904,540.017334 382.966888,525.440125 389.293488,510.889923 
	C409.143951,560.755737 441.502899,597.151001 491.810516,615.869629 
	C491.590546,614.416809 490.956024,613.332947 490.173767,612.368896 
	C479.377838,599.064514 471.200653,584.356079 465.603638,568.121399 
	C464.139221,563.873718 461.181519,560.140869 459.025299,555.490479 
	C459.409912,554.960144 459.794525,554.429871 460.764801,554.203857 
	C468.801849,561.109741 476.838928,568.015625 484.821777,574.874939 
	C484.068115,575.524353 482.881256,576.547058 481.672791,577.588379 
	C503.395599,598.349976 567.590027,610.353516 592.887939,598.408081 
	C591.041626,597.614868 589.385437,596.883911 587.714539,596.188232 
	C561.925964,585.450378 536.159241,574.659241 510.321533,564.040894 
	C506.096313,562.304382 503.853455,560.169678 504.707886,555.175659 
	C505.195984,552.322876 504.592957,549.195496 504.053619,546.270569 
	C502.047333,535.389771 493.585083,531.503052 484.607025,537.939697 
	C480.214417,541.088867 477.065826,545.973328 472.792297,550.692932 
	C469.391022,546.909302 465.448792,542.523926 462.584900,537.729248 
	C462.947083,537.600220 463.309265,537.471191 464.156097,537.779968 
	C467.272980,534.306396 470.389862,530.832764 473.601013,527.254150 
	C472.715210,526.165771 471.460327,524.623474 470.204987,523.081543 
	C451.874817,500.566925 445.612030,474.453888 449.410522,446.275208 
	C452.953766,419.990417 469.298187,402.650269 492.661407,391.471283 
	C511.086700,382.655060 529.218384,383.515839 546.939880,393.720642 
	C536.914001,396.975555 528.526428,402.622772 521.973877,411.849548 
	C553.896118,405.009918 584.057190,421.547272 597.576477,436.813110 
	C606.903870,447.345520 604.477539,456.111511 591.365540,460.692810 
	C590.778442,460.897949 590.211731,461.161163 589.499146,461.453217 
	C614.400879,473.748169 637.769104,463.963928 648.677979,441.449738 
	C634.722656,445.205322 634.722656,445.205322 631.057129,443.115387 
	C632.453308,440.068878 633.849670,437.022003 635.686462,433.014008 
	C633.769897,433.898773 633.043518,434.241943 632.310791,434.571014 
	C622.694885,438.890045 620.064148,438.333069 614.987549,429.047485 
	C611.492798,422.655426 608.840820,415.777679 606.119995,408.993591 
	C602.470825,399.894928 597.091858,392.345093 588.378479,387.478394 
	C587.162659,386.799316 585.970947,386.077057 584.161926,385.020935 
	C585.524902,384.575073 586.107544,384.283295 586.717651,384.204956 
	C588.202759,384.014191 589.698792,383.835846 591.193665,383.804474 
	C604.347412,383.528687 616.412903,387.306366 626.469543,395.561218 
	C633.683777,401.482941 640.313782,407.795685 650.086182,408.955109 
	C650.335999,408.984741 650.539612,409.403809 651.161682,410.059753 
	C649.441040,415.422058 647.636658,421.045288 645.516418,427.652893 
	C651.529053,423.630981 656.817261,420.093658 662.105469,416.556305 
	C662.755432,417.007416 663.405396,417.458527 664.055359,417.909607 
	C662.727722,423.285553 661.400146,428.661499 660.032471,434.199585 
	C676.152527,428.842865 686.576477,417.306793 692.986877,401.671265 
	C693.516113,400.380524 693.581543,398.564148 693.116272,397.257721 
	C690.763000,390.649780 688.162842,384.129730 685.672852,377.640381 
	C673.700012,381.978912 668.420105,381.673553 660.429443,376.237030 
	C657.555542,374.281677 654.638428,372.151703 652.411987,369.531342 
	C647.385376,363.615540 642.102051,358.320190 634.049500,356.894287 
	C633.977356,356.881500 633.990540,356.386444 633.921570,355.688049 
	C636.579590,355.688049 639.170898,355.688049 642.084167,355.688049 
	C641.737488,350.288818 641.561523,345.317291 640.999512,340.389801 
	C640.861877,339.183075 639.691345,337.785217 638.607239,337.041595 
	C621.281677,325.157288 606.654480,310.411346 593.147339,294.461273 
	C590.654175,291.517212 588.152466,288.580383 584.873352,284.720428 
	C586.976074,294.060181 588.786743,302.102722 590.913147,311.547577 
	C587.957275,309.508850 585.915955,308.473083 584.339783,306.954468 
	C572.457031,295.505188 558.505432,287.278290 544.015930,279.555695 
	C504.319519,258.398285 468.997040,231.903809 443.393005,194.059174 
	C442.737030,193.089630 441.582977,192.457092 440.661194,191.667389 
	C440.337799,191.971405 440.014404,192.275421 439.691010,192.579437 
	C443.848022,201.572525 447.694366,210.725372 452.221863,219.527893 
	C464.460144,243.321930 481.695190,262.950287 502.967651,279.920288 
	C502.440186,281.306824 501.825226,282.667908 501.411957,284.087646 
	C501.058167,285.303040 500.935455,286.585724 499.904755,287.931030 
	C499.643799,287.860443 499.382812,287.789886 498.924774,287.074707 
	C498.252014,287.146362 497.579224,287.218048 496.023376,287.345428 
M484.587646,514.865051 
	C480.482361,509.510986 476.377075,504.156952 472.271790,498.802887 
	C472.550964,498.379944 472.830139,497.957001 473.109314,497.534058 
	C497.461761,503.521027 521.970215,507.856354 547.428284,504.956970 
	C528.995361,495.962036 518.030823,475.377502 495.550110,472.757355 
	C491.234070,472.254303 486.986481,470.049072 483.001648,468.044189 
	C473.900085,463.465027 464.980774,458.523682 455.758423,453.607391 
	C454.020752,480.784821 462.813782,504.433563 480.117493,525.266052 
	C483.261017,523.437500 485.928406,521.885925 488.885864,520.165649 
	C487.516022,518.474060 486.273804,516.940063 484.587646,514.865051 
M473.565460,457.904633 
	C484.380035,463.623779 495.772614,467.703705 506.816010,470.403717 
	C504.694946,461.747498 502.665649,453.264313 500.486847,444.819763 
	C500.203033,443.719727 499.372589,442.350952 498.418854,441.896057 
	C486.910553,436.407288 476.669495,429.250885 468.293274,419.088440 
	C462.431061,426.424500 459.162720,434.521545 457.180542,443.132080 
	C456.875275,444.458160 458.025330,446.740295 459.214050,447.678436 
	C463.628723,451.162476 468.340759,454.269653 473.565460,457.904633 
M733.233093,638.944641 
	C733.233093,653.526672 733.233093,668.108765 733.233093,682.609741 
	C736.807312,682.609741 739.880127,682.609741 743.277832,682.609741 
	C743.277832,673.603210 743.277832,664.903381 743.277832,655.226257 
	C749.997803,663.585754 756.342102,671.004883 762.111694,678.846924 
	C765.175110,683.010803 768.628845,683.877258 773.281555,682.576233 
	C773.281555,667.839905 773.281555,653.134094 773.281555,638.592896 
	C769.954956,638.592896 767.052673,638.592896 763.690308,638.592896 
	C763.690308,647.225098 763.690308,655.462219 763.690308,665.073486 
	C761.790588,662.855103 760.698242,661.712524 759.756775,660.456909 
	C755.862671,655.263000 751.595520,650.286682 748.264221,644.749817 
	C744.783081,638.964050 740.304260,636.804749 733.233093,638.944641 
M554.193420,638.983032 
	C544.990601,638.565369 535.787720,638.147644 526.421631,637.722534 
	C526.421631,653.448242 526.421631,668.138733 526.421631,682.651367 
	C529.857849,682.651367 532.934753,682.651367 536.407227,682.651367 
	C536.407227,678.077576 536.407227,673.851685 536.407227,669.853821 
	C542.232117,668.180969 546.072632,669.825439 548.393188,675.123474 
	C549.314087,677.226013 550.747803,679.143799 552.175049,680.968079 
	C552.899719,681.894409 554.084961,682.951843 555.137512,683.038940 
	C558.378540,683.307434 561.656006,683.136841 565.987183,683.136841 
	C562.110596,677.480530 558.811340,672.666626 555.412109,667.706909 
	C562.497681,664.362061 564.788269,658.898560 564.357788,651.961243 
	C563.968384,645.686462 561.021729,641.307800 554.193420,638.983032 
M656.859375,650.449402 
	C659.553711,648.459900 662.247986,646.470459 665.036194,644.411682 
	C657.480652,636.623352 644.809265,634.846130 635.574646,639.564453 
	C626.577637,644.161377 621.344543,655.401123 623.486511,665.821655 
	C625.337402,674.826599 630.851196,680.580750 639.662231,682.982910 
	C648.895081,685.500122 657.458801,683.920776 665.090149,678.019775 
	C665.675720,677.566895 666.241516,676.662048 666.252014,675.958862 
	C666.342896,669.865417 666.304382,663.770081 666.304382,657.647461 
	C659.201538,657.647461 652.760681,657.647461 646.111206,657.647461 
	C646.111206,660.346497 646.111206,662.770264 646.111206,665.724243 
	C649.777649,665.724243 653.192871,665.724243 657.772644,665.724243 
	C656.505737,668.884460 656.218811,671.980469 654.528687,673.371765 
	C649.374939,677.614197 638.086487,674.451782 634.899597,668.335449 
	C631.798523,662.383789 633.209106,653.542969 637.923096,649.386719 
	C642.591248,645.270874 650.280212,645.519592 656.859375,650.449402 
M681.179260,677.331543 
	C682.350159,678.262817 683.458801,679.288147 684.701965,680.110046 
	C693.361755,685.836243 706.199585,685.260559 714.229065,678.830933 
	C721.693054,672.854126 724.744751,661.826172 721.367798,652.604858 
	C717.838379,642.967346 710.587036,637.958374 700.631409,637.184631 
	C690.647888,636.408875 682.502686,640.277344 677.800964,649.303162 
	C672.812073,658.880432 673.787170,668.256348 681.179260,677.331543 
M473.683075,665.497070 
	C473.683075,671.269165 473.683075,677.041260 473.683075,683.015747 
	C481.115448,683.015747 488.105103,683.359192 495.048309,682.937561 
	C506.286255,682.255249 514.935059,673.401123 515.771729,662.344421 
	C516.651001,650.724548 509.708374,640.695740 498.079559,638.985718 
	C490.205353,637.827881 482.023102,638.764771 473.683075,638.764771 
	C473.683075,647.253174 473.683075,655.875549 473.683075,665.497070 
M431.762360,674.418274 
	C431.762360,671.445557 431.762360,668.472778 431.762360,665.519531 
	C438.183441,665.519531 444.078705,665.519531 450.379028,665.519531 
	C450.379028,671.364075 450.379028,676.967712 450.379028,682.790344 
	C453.879272,682.790344 456.968811,682.790344 460.352356,682.790344 
	C460.352356,667.889771 460.352356,653.163452 460.352356,638.249756 
	C457.067902,638.249756 454.113251,638.249756 450.487732,638.249756 
	C450.487732,644.104431 450.487732,649.840698 450.487732,655.506836 
	C443.904877,655.506836 437.997772,655.506836 431.536224,655.506836 
	C431.536224,649.612793 431.536224,644.036133 431.536224,638.523926 
	C428.055237,638.523926 425.141357,638.523926 422.032654,638.523926 
	C422.032654,653.445984 422.032654,668.041992 422.032654,682.645386 
	C425.285461,682.645386 428.327698,682.645386 431.760193,682.645386 
	C431.760193,680.002869 431.760193,677.697266 431.762360,674.418274 
M353.367126,656.021606 
	C347.925354,656.021606 342.483582,656.021606 336.960541,656.021606 
	C336.960541,652.871826 336.960541,650.275574 336.960541,647.150635 
	C345.390594,647.150635 353.600281,647.150635 361.759705,647.150635 
	C361.759705,643.866394 361.759705,641.120361 361.759705,638.390381 
	C350.040253,638.390381 338.648224,638.390381 327.236847,638.390381 
	C327.236847,653.451599 327.236847,668.156921 327.236847,682.900085 
	C339.007141,682.900085 350.446381,682.900085 362.010803,682.900085 
	C362.010803,679.975403 362.010803,677.245605 362.010803,674.014404 
	C353.444061,674.014404 345.218018,674.014404 337.160950,674.014404 
	C337.160950,670.747437 337.160950,667.991455 337.160950,664.815308 
	C344.519714,664.815308 351.598907,664.815308 358.851013,664.815308 
	C358.851013,661.783936 358.851013,659.191956 358.851013,656.275574 
	C357.227448,656.184387 355.779846,656.103088 353.367126,656.021606 
M518.228943,213.324509 
	C517.412903,212.122406 516.596924,210.920303 515.780945,209.718201 
	C515.328064,209.897659 514.875183,210.077118 514.422363,210.256577 
	C519.369446,225.870316 524.127686,241.548645 529.430176,257.040741 
	C530.434937,259.976196 533.161743,262.838684 535.840820,264.596680 
	C548.623901,272.984863 561.696716,280.930145 574.587891,289.156189 
	C577.333496,290.908234 579.751404,293.173859 582.733948,295.529572 
	C582.872192,289.813171 581.599792,285.734589 577.198730,282.511017 
	C552.294373,264.269897 533.583008,240.672897 518.228943,213.324509 
M607.727051,681.020874 
	C611.229980,681.867493 614.732910,682.714050 619.401428,683.842346 
	C618.232056,680.928711 617.767395,679.705322 617.254272,678.502625 
	C611.969727,666.115662 606.482544,653.809814 601.499451,641.302917 
	C599.891479,637.267273 597.071045,638.253784 594.245117,638.016418 
	C591.333435,637.771851 589.410339,638.346313 588.139160,641.526672 
	C583.571106,652.955322 578.638062,664.237976 573.858826,675.582397 
	C572.875916,677.915527 571.961121,680.277405 570.643372,683.548401 
	C575.010010,681.959412 579.924988,685.574585 581.666565,680.495911 
	C583.666077,674.665344 587.135498,672.839050 592.836304,673.796509 
	C594.455322,674.068481 596.201965,674.069031 597.817566,673.783508 
	C603.211304,672.830444 606.302185,675.024475 607.727051,681.020874 
M385.034912,671.547852 
	C380.262970,666.502869 379.688538,660.699951 382.064392,654.441772 
	C383.972260,649.416321 387.906158,646.234314 393.047150,646.526001 
	C397.559082,646.782104 401.965729,648.893616 406.323853,650.158081 
	C407.977112,648.769592 410.229431,646.878113 412.469055,644.997253 
	C402.414429,634.447998 385.885132,634.313782 376.738922,644.415405 
	C367.662415,654.440002 368.828827,670.955933 379.018707,679.240540 
	C388.804779,687.196716 407.347992,684.785217 411.837463,676.456482 
	C409.877869,674.080688 408.001587,671.805969 406.094452,669.493774 
	C399.397675,675.118225 392.874908,677.106995 385.034912,671.547852 
M303.212585,664.049438 
	C303.212585,658.747559 303.212585,653.445740 303.212585,647.428711 
	C308.197388,647.428711 312.885284,647.428711 317.441650,647.428711 
	C317.441650,643.944519 317.441650,641.185608 317.441650,638.341980 
	C304.674225,638.341980 292.265076,638.341980 279.726654,638.341980 
	C279.726654,641.473267 279.726654,644.324768 279.726654,647.611938 
	C284.370483,647.611938 288.605927,647.611938 293.278137,647.611938 
	C293.278137,659.622314 293.278137,671.193848 293.278137,682.717285 
	C296.827759,682.717285 299.899017,682.717285 303.203400,682.717285 
	C303.203400,676.601074 303.203400,670.792419 303.212585,664.049438 
M483.666138,404.164917 
	C479.754913,407.202820 475.843658,410.240723 471.677612,413.476562 
	C479.466309,423.986328 488.828369,431.423950 499.967743,436.266846 
	C502.324860,428.778473 504.502350,421.860718 506.601990,415.190277 
	C502.101562,409.988770 497.559174,404.738770 492.680573,399.100189 
	C490.035675,400.583008 487.163391,402.193298 483.666138,404.164917 
M503.460449,404.077240 
	C505.772217,406.575409 508.083984,409.073608 509.479187,410.581329 
	C515.585571,403.976624 521.214111,397.888824 525.767151,392.964233 
	C518.098694,392.207123 508.108215,392.339111 498.513092,396.664581 
	C498.754364,397.472961 498.781128,398.021149 499.051636,398.391022 
	C500.328247,400.136444 501.671631,401.833038 503.460449,404.077240 
z"/>
<path fill="#FAFAFA" opacity="1.000000" stroke="none" 
	d="
M461.506561,538.138550 
	C465.448792,542.523926 469.391022,546.909302 472.792297,550.692932 
	C477.065826,545.973328 480.214417,541.088867 484.607025,537.939697 
	C493.585083,531.503052 502.047333,535.389771 504.053619,546.270569 
	C504.592957,549.195496 505.195984,552.322876 504.707886,555.175659 
	C503.853455,560.169678 506.096313,562.304382 510.321533,564.040894 
	C536.159241,574.659241 561.925964,585.450378 587.714539,596.188232 
	C589.385437,596.883911 591.041626,597.614868 592.887939,598.408081 
	C567.590027,610.353516 503.395599,598.349976 481.672791,577.588379 
	C482.881256,576.547058 484.068115,575.524353 484.821777,574.874939 
	C476.838928,568.015625 468.801849,561.109741 460.372009,553.725586 
	C445.958862,537.173889 434.671906,519.516724 428.472137,498.907379 
	C428.185913,497.955872 427.997406,496.855865 427.385529,496.154907 
	C426.778229,495.459290 425.692963,495.180908 424.817322,494.719543 
	C424.771057,495.578308 424.486694,496.510223 424.723694,497.281982 
	C425.403717,499.496246 426.346283,501.628143 427.094910,503.823334 
	C433.845154,523.617615 444.804718,540.849365 458.909637,556.171570 
	C461.181519,560.140869 464.139221,563.873718 465.603638,568.121399 
	C471.200653,584.356079 479.377838,599.064514 490.173767,612.368896 
	C490.956024,613.332947 491.590546,614.416809 491.810516,615.869629 
	C441.502899,597.151001 409.143951,560.755737 389.293488,510.889923 
	C382.966888,525.440125 381.688904,540.017334 380.621948,554.705811 
	C363.583710,520.080688 360.189209,483.998444 368.527100,446.402008 
	C368.412231,445.918884 368.382355,445.634155 368.352478,445.349426 
	C368.235443,445.566803 368.118469,445.784180 368.001495,446.001587 
	C359.315155,454.613647 350.637207,463.234192 341.933258,471.828400 
	C340.651093,473.094452 339.245819,474.235809 337.587158,475.123383 
	C347.178955,435.437164 359.307800,397.151703 389.936707,366.236450 
	C373.473358,371.073090 359.221710,377.594543 345.248474,385.038635 
	C366.041199,353.764221 392.840454,329.968262 428.160156,316.429810 
	C428.041870,316.023193 427.923584,315.616608 427.805298,315.209991 
	C415.915283,316.538910 404.025238,317.867859 390.867340,319.338470 
	C412.203979,305.794647 435.296387,300.949341 458.422791,296.708588 
	C449.863342,290.865997 441.268311,284.999146 432.673279,279.132294 
	C432.915436,278.904724 433.157593,278.677155 433.399750,278.449554 
	C454.274292,281.414856 475.148834,284.380127 496.602295,287.524445 
	C497.828064,287.708740 498.474945,287.714020 499.121826,287.719299 
	C499.382812,287.789886 499.643799,287.860443 500.583496,287.999451 
	C504.210083,288.584686 507.158417,289.098572 510.105591,289.619080 
	C513.831482,290.277130 515.584839,292.291901 517.091309,296.071320 
	C519.826111,302.932190 523.948547,309.245453 527.575134,315.740784 
	C528.315674,317.067169 529.423035,318.188782 530.361328,319.404785 
	C530.144531,319.726685 529.927734,320.048615 529.710938,320.370514 
	C509.621124,316.828522 489.531281,313.286530 469.441437,309.744507 
	C482.107574,326.368408 499.098602,336.623077 516.568726,346.251160 
	C516.442810,346.716309 516.316833,347.181427 516.190918,347.646576 
	C503.629150,346.019958 491.067383,344.393311 478.699219,342.791748 
	C482.134003,349.769470 504.540863,364.267456 511.590302,363.370270 
	C507.110901,360.360596 503.006042,357.602570 499.207184,355.050140 
	C513.778625,355.050140 528.269104,355.050140 543.579346,355.050140 
	C534.545532,349.798462 525.958679,344.847748 517.412903,339.827057 
	C508.902924,334.827423 500.422089,329.773712 493.693848,322.236664 
	C515.816040,325.329041 538.403076,325.412109 559.057007,335.853210 
	C554.981384,331.339478 550.523682,327.735840 546.020325,324.190277 
	C538.361816,318.160645 531.527466,311.462341 528.005310,301.963013 
	C528.287354,301.601410 528.387573,301.447235 528.898804,301.314087 
	C537.450500,302.566803 545.591248,303.798523 553.731934,305.030243 
	C553.805115,304.503662 553.878235,303.977081 553.951416,303.450531 
	C548.295715,301.766571 542.235474,300.875275 537.066467,298.237579 
	C525.464783,292.317413 514.305725,285.529877 502.966461,279.095490 
	C481.695190,262.950287 464.460144,243.321930 452.221863,219.527893 
	C447.694366,210.725372 443.848022,201.572525 439.691010,192.579437 
	C440.014404,192.275421 440.337799,191.971405 440.661194,191.667389 
	C441.582977,192.457092 442.737030,193.089630 443.393005,194.059174 
	C468.997040,231.903809 504.319519,258.398285 544.015930,279.555695 
	C558.505432,287.278290 572.457031,295.505188 584.339783,306.954468 
	C585.915955,308.473083 587.957275,309.508850 590.913147,311.547577 
	C588.786743,302.102722 586.976074,294.060181 584.873352,284.720428 
	C588.152466,288.580383 590.654175,291.517212 593.147339,294.461273 
	C606.654480,310.411346 621.281677,325.157288 638.607239,337.041595 
	C639.691345,337.785217 640.861877,339.183075 640.999512,340.389801 
	C641.561523,345.317291 641.737488,350.288818 642.084167,355.688049 
	C639.170898,355.688049 636.579590,355.688049 633.921570,355.688049 
	C633.990540,356.386444 633.977356,356.881500 634.049500,356.894287 
	C642.102051,358.320190 647.385376,363.615540 652.411987,369.531342 
	C654.638428,372.151703 657.555542,374.281677 660.429443,376.237030 
	C668.420105,381.673553 673.700012,381.978912 685.672852,377.640381 
	C688.162842,384.129730 690.763000,390.649780 693.116272,397.257721 
	C693.581543,398.564148 693.516113,400.380524 692.986877,401.671265 
	C686.576477,417.306793 676.152527,428.842865 660.032471,434.199585 
	C661.400146,428.661499 662.727722,423.285553 664.055359,417.909607 
	C663.405396,417.458527 662.755432,417.007416 662.105469,416.556305 
	C656.817261,420.093658 651.529053,423.630981 645.516418,427.652893 
	C647.636658,421.045288 649.441040,415.422058 651.161682,410.059753 
	C650.539612,409.403809 650.335999,408.984741 650.086182,408.955109 
	C640.313782,407.795685 633.683777,401.482941 626.469543,395.561218 
	C616.412903,387.306366 604.347412,383.528687 591.193665,383.804474 
	C589.698792,383.835846 588.202759,384.014191 586.717651,384.204956 
	C586.107544,384.283295 585.524902,384.575073 584.161926,385.020935 
	C585.970947,386.077057 587.162659,386.799316 588.378479,387.478394 
	C597.091858,392.345093 602.470825,399.894928 606.119995,408.993591 
	C608.840820,415.777679 611.492798,422.655426 614.987549,429.047485 
	C620.064148,438.333069 622.694885,438.890045 632.310791,434.571014 
	C633.043518,434.241943 633.769897,433.898773 635.686462,433.014008 
	C633.849670,437.022003 632.453308,440.068878 631.057129,443.115387 
	C634.722656,445.205322 634.722656,445.205322 648.677979,441.449738 
	C637.769104,463.963928 614.400879,473.748169 589.499146,461.453217 
	C590.211731,461.161163 590.778442,460.897949 591.365540,460.692810 
	C604.477539,456.111511 606.903870,447.345520 597.576477,436.813110 
	C584.057190,421.547272 553.896118,405.009918 521.973877,411.849548 
	C528.526428,402.622772 536.914001,396.975555 546.939880,393.720642 
	C529.218384,383.515839 511.086700,382.655060 492.661407,391.471283 
	C469.298187,402.650269 452.953766,419.990417 449.410522,446.275208 
	C445.612030,474.453888 451.874817,500.566925 470.204987,523.081543 
	C471.460327,524.623474 472.715210,526.165771 473.601013,527.254150 
	C470.389862,530.832764 467.272980,534.306396 463.785126,537.250488 
	C456.223877,525.918091 449.033600,515.115173 441.843323,504.312286 
	C446.263367,516.844421 452.579865,528.255310 461.506561,538.138550 
M422.847046,423.717285 
	C421.232086,423.814423 419.617126,423.911560 417.342041,423.928772 
	C416.587402,424.620453 415.832764,425.312134 414.809174,426.614380 
	C415.325348,427.628845 415.841522,428.643280 416.379181,429.702911 
	C416.379181,429.702911 416.423187,429.726471 416.996185,430.411194 
	C417.714233,431.964874 419.148743,433.574768 419.031891,435.062866 
	C418.369873,443.495483 416.801270,451.885223 416.585114,460.316345 
	C416.382782,468.208313 417.353699,476.145660 418.113281,484.033691 
	C418.260773,485.565491 419.812561,486.962097 420.716553,488.421082 
	C421.854370,487.206787 421.897186,486.574219 421.786804,485.969574 
	C418.278717,466.753662 418.771515,447.787445 424.912109,429.072144 
	C425.359467,427.708771 423.899689,425.719666 423.277618,424.058411 
	C423.277618,424.058411 423.328522,424.053314 422.847046,423.717285 
M411.006683,430.581818 
	C413.701080,422.191315 416.143036,413.709320 419.142822,405.429443 
	C425.211487,388.678864 435.253540,374.907135 450.442535,365.180664 
	C451.546814,364.473541 452.444580,363.443970 453.438324,362.564270 
	C453.152313,362.130280 452.866302,361.696259 452.580292,361.262238 
	C451.255798,361.925964 449.877441,362.500885 448.614960,363.266815 
	C432.662994,372.944702 422.264191,387.305298 416.285706,404.499878 
	C411.441345,418.432587 408.422729,432.996765 404.455200,447.242096 
	C403.985779,448.927582 402.895599,450.630554 401.641327,451.867157 
	C399.089447,454.383270 398.567627,457.001587 400.666962,459.847351 
	C402.664673,462.555359 405.472992,463.050049 408.089569,460.993073 
	C410.882904,458.797119 410.599640,456.028717 408.955200,452.965332 
	C407.911957,451.021881 407.012299,448.498688 407.325806,446.429047 
	C408.095032,441.351318 409.604034,436.385620 411.006683,430.581818 
M613.688782,339.807129 
	C603.382263,333.458710 593.985107,325.322876 581.517029,323.070190 
	C590.293701,327.465210 595.951111,334.479736 599.950928,343.159607 
	C600.701904,344.789337 602.272827,346.773315 603.828735,347.170532 
	C609.880005,348.715332 616.077576,349.686798 622.220764,350.871552 
	C622.488892,350.583649 622.757080,350.295715 623.025208,350.007812 
	C620.091064,346.764587 617.156860,343.521393 613.688782,339.807129 
M436.213959,479.083740 
	C435.688690,472.161591 435.163452,465.239410 434.635040,458.275787 
	C439.860321,458.212769 443.452118,454.951263 443.724487,450.609497 
	C444.093201,444.732300 442.033478,443.092804 436.519958,441.682709 
	C430.009674,440.017761 428.717896,444.110046 426.747559,448.391388 
	C424.800476,452.622223 427.397736,454.798340 429.901581,457.371948 
	C430.958374,458.458252 431.665436,460.184845 431.905151,461.718262 
	C433.674438,473.037079 435.199432,484.394531 437.028259,495.703125 
	C437.345093,497.662201 438.737244,499.447388 439.632690,501.312927 
	C440.076935,501.115540 440.521149,500.918152 440.965363,500.720764 
	C439.417969,493.795990 437.870605,486.871185 436.213959,479.083740 
M442.867554,383.506927 
	C445.152435,380.665314 447.437286,377.823730 449.722137,374.982147 
	C449.103638,374.479584 448.485107,373.977020 447.866577,373.474457 
	C442.939148,379.507843 437.659912,385.297668 433.239777,391.682251 
	C431.177979,394.660339 433.917603,399.002258 437.391113,399.860687 
	C440.876129,400.721924 444.737885,398.626099 444.648193,395.016357 
	C444.529602,390.243439 447.136169,387.390900 450.352081,385.178711 
	C459.363190,378.980164 468.636078,373.160797 477.841431,367.247589 
	C479.128662,366.420746 480.616730,365.906616 482.011810,365.247742 
	C481.843140,364.806824 481.674438,364.365936 481.505768,363.925018 
	C479.890106,364.400696 478.226807,364.755585 476.666321,365.371124 
	C464.374542,370.219635 454.116730,378.102173 444.500702,386.957306 
	C443.384583,387.985107 441.911835,388.625702 440.604401,389.445831 
	C440.288818,388.976044 439.973206,388.506256 439.657623,388.036469 
	C440.564362,386.711029 441.471130,385.385590 442.867554,383.506927 
M416.435486,368.986969 
	C420.320282,365.002686 424.205109,361.018433 428.089905,357.034149 
	C427.678650,356.610596 427.267426,356.187042 426.856171,355.763458 
	C424.149780,358.047791 421.235504,360.129242 418.773743,362.652252 
	C409.136169,372.529755 402.142456,384.226227 395.768311,396.366394 
	C394.860504,398.095367 392.864868,399.592712 391.023468,400.417999 
	C387.675537,401.918335 385.799194,405.116180 387.007782,408.421936 
	C388.138763,411.515411 392.175171,413.122925 395.352295,411.745087 
	C398.633606,410.322113 399.515503,406.928375 398.139893,403.358063 
	C397.485291,401.659088 397.169067,399.066467 398.013245,397.676392 
	C403.790863,388.162476 409.917145,378.860321 416.435486,368.986969 
M448.580872,326.037598 
	C439.301880,330.826263 430.048004,335.664734 420.723694,340.363556 
	C418.746490,341.359955 416.527374,342.391907 414.393341,342.450592 
	C410.369843,342.561279 407.879578,344.103363 407.806427,348.163116 
	C407.737518,351.988770 410.289948,354.023651 413.873352,353.951721 
	C418.019073,353.868500 419.429352,351.159943 419.293274,347.171722 
	C419.248871,345.870239 419.996368,343.941498 421.014038,343.294922 
	C434.218079,334.905548 447.610779,326.873077 463.473724,324.427338 
	C464.540802,324.262817 465.544800,323.689240 466.578125,323.305908 
	C466.383392,322.621918 466.188660,321.937958 465.993927,321.253967 
	C460.438110,322.767883 454.882294,324.281799 448.580872,326.037598 
M451.004456,352.041077 
	C446.007111,355.009491 441.095673,358.135406 435.996338,360.916901 
	C420.379211,369.435486 411.667725,383.545624 404.749512,399.134705 
	C404.330627,400.078583 404.321320,401.204254 404.121429,402.245361 
	C404.497162,402.417969 404.872894,402.590607 405.248657,402.763214 
	C406.247833,401.059814 407.419800,399.433411 408.219025,397.640839 
	C415.101227,382.205902 424.833221,369.338715 440.206909,361.373993 
	C444.036896,359.389740 447.706757,357.081543 451.356354,354.773773 
	C452.340973,354.151123 455.262512,353.277344 451.004456,352.041077 
M605.636963,368.695618 
	C607.968384,369.464203 610.299744,370.232788 612.631165,371.001373 
	C612.819458,370.498260 613.007751,369.995148 613.196106,369.492035 
	C608.218872,367.426086 603.377441,364.897980 598.237000,363.387848 
	C586.600525,359.969360 577.649963,354.087067 575.505981,339.735596 
	C573.145996,351.483673 578.275696,361.001587 587.997009,364.150787 
	C593.510071,365.936707 599.260071,366.990875 605.636963,368.695618 
M441.271515,561.461121 
	C440.672638,560.150757 440.303619,558.657410 439.432739,557.563599 
	C436.546509,553.938904 433.257599,550.614868 430.594116,546.842834 
	C429.570099,545.392700 429.246765,542.940613 429.590546,541.132629 
	C430.421600,536.761841 428.649261,534.392639 424.656006,533.456421 
	C421.126190,532.628906 418.392242,534.086060 417.067719,537.393677 
	C415.775116,540.621643 417.980286,545.452942 421.425171,545.546692 
	C426.655151,545.688965 428.625397,549.268799 431.436981,552.390259 
	C434.297455,555.565979 437.548584,558.389832 441.271515,561.461121 
M401.916290,488.622589 
	C404.261230,506.000061 409.120880,520.844788 414.372589,523.539490 
	C407.528870,507.283997 403.736572,491.252441 403.581818,474.403595 
	C402.810242,474.505310 402.038666,474.607025 401.267090,474.708740 
	C401.464905,479.049591 401.662750,483.390411 401.916290,488.622589 
z"/>
<path fill="#FAFAFA" opacity="1.000000" stroke="none" 
	d="
M584.993530,552.372742 
	C569.309937,542.314880 551.663940,538.944946 533.517334,537.277588 
	C542.255066,540.800354 551.275269,543.764587 559.652649,548.000122 
	C568.353882,552.399353 576.485413,557.945618 584.761597,563.156189 
	C588.588196,565.565430 590.713074,569.207275 591.596558,573.728943 
	C592.755859,579.662292 594.266052,585.527161 595.625305,591.421448 
	C595.199097,591.697205 594.772949,591.972961 594.346741,592.248657 
	C569.967041,581.263916 545.566589,570.324585 521.252380,559.196716 
	C519.554382,558.419617 517.518982,556.378845 517.289795,554.700439 
	C514.760071,536.178772 505.008881,521.941040 491.381287,509.910309 
	C490.905060,509.489899 490.054352,509.493652 489.378143,509.299713 
	C489.730652,508.775421 490.083160,508.251129 490.435669,507.726807 
	C494.878693,508.502228 499.293365,509.587463 503.769836,509.997223 
	C519.659973,511.451874 535.578735,512.595154 551.466553,514.072754 
	C553.922424,514.301147 556.711365,515.104980 558.600647,516.590820 
	C570.457947,525.916199 579.279480,537.637207 584.997437,551.928589 
	C584.900574,552.270813 584.993530,552.372742 584.993530,552.372742 
z"/>
<path fill="#FAFAFA" opacity="1.000000" stroke="none" 
	d="
M484.809631,515.135620 
	C486.273804,516.940063 487.516022,518.474060 488.885864,520.165649 
	C485.928406,521.885925 483.261017,523.437500 480.117493,525.266052 
	C462.813782,504.433563 454.020752,480.784821 455.758423,453.607391 
	C464.980774,458.523682 473.900085,463.465027 483.001648,468.044189 
	C486.986481,470.049072 491.234070,472.254303 495.550110,472.757355 
	C518.030823,475.377502 528.995361,495.962036 547.428284,504.956970 
	C521.970215,507.856354 497.461761,503.521027 473.109314,497.534058 
	C472.830139,497.957001 472.550964,498.379944 472.271790,498.802887 
	C476.377075,504.156952 480.482361,509.510986 484.809631,515.135620 
z"/>
<path fill="#0E0E0E" opacity="1.000000" stroke="none" 
	d="
M502.967041,279.507874 
	C514.305725,285.529877 525.464783,292.317413 537.066467,298.237579 
	C542.235474,300.875275 548.295715,301.766571 553.951416,303.450531 
	C553.878235,303.977081 553.805115,304.503662 553.731934,305.030243 
	C545.591248,303.798523 537.450500,302.566803 528.673096,301.217529 
	C527.965454,301.456757 527.894531,301.813599 527.823547,302.170441 
	C531.527466,311.462341 538.361816,318.160645 546.020325,324.190277 
	C550.523682,327.735840 554.981384,331.339478 559.057007,335.853210 
	C538.403076,325.412109 515.816040,325.329041 493.693848,322.236664 
	C500.422089,329.773712 508.902924,334.827423 517.412903,339.827057 
	C525.958679,344.847748 534.545532,349.798462 543.579346,355.050140 
	C528.269104,355.050140 513.778625,355.050140 499.207184,355.050140 
	C503.006042,357.602570 507.110901,360.360596 511.590302,363.370270 
	C504.540863,364.267456 482.134003,349.769470 478.699219,342.791748 
	C491.067383,344.393311 503.629150,346.019958 516.190918,347.646576 
	C516.316833,347.181427 516.442810,346.716309 516.568726,346.251160 
	C499.098602,336.623077 482.107574,326.368408 469.441437,309.744507 
	C489.531281,313.286530 509.621124,316.828522 529.710938,320.370514 
	C529.927734,320.048615 530.144531,319.726685 530.361328,319.404785 
	C529.423035,318.188782 528.315674,317.067169 527.575134,315.740784 
	C523.948547,309.245453 519.826111,302.932190 517.091309,296.071320 
	C515.584839,292.291901 513.831482,290.277130 510.105591,289.619080 
	C507.158417,289.098572 504.210083,288.584686 500.986389,287.953247 
	C500.935455,286.585724 501.058167,285.303040 501.411957,284.087646 
	C501.825226,282.667908 502.440186,281.306824 502.967041,279.507874 
z"/>
<path fill="#FAFAFA" opacity="1.000000" stroke="none" 
	d="
M473.253296,457.711517 
	C468.340759,454.269653 463.628723,451.162476 459.214050,447.678436 
	C458.025330,446.740295 456.875275,444.458160 457.180542,443.132080 
	C459.162720,434.521545 462.431061,426.424500 468.293274,419.088440 
	C476.669495,429.250885 486.910553,436.407288 498.418854,441.896057 
	C499.372589,442.350952 500.203033,443.719727 500.486847,444.819763 
	C502.665649,453.264313 504.694946,461.747498 506.816010,470.403717 
	C495.772614,467.703705 484.380035,463.623779 473.253296,457.711517 
z"/>
<path fill="#F4F4F3" opacity="1.000000" stroke="none" 
	d="
M733.552124,638.611084 
	C740.304260,636.804749 744.783081,638.964050 748.264221,644.749817 
	C751.595520,650.286682 755.862671,655.263000 759.756775,660.456909 
	C760.698242,661.712524 761.790588,662.855103 763.690308,665.073486 
	C763.690308,655.462219 763.690308,647.225098 763.690308,638.592896 
	C767.052673,638.592896 769.954956,638.592896 773.281555,638.592896 
	C773.281555,653.134094 773.281555,667.839905 773.281555,682.576233 
	C768.628845,683.877258 765.175110,683.010803 762.111694,678.846924 
	C756.342102,671.004883 749.997803,663.585754 743.277832,655.226257 
	C743.277832,664.903381 743.277832,673.603210 743.277832,682.609741 
	C739.880127,682.609741 736.807312,682.609741 733.233093,682.609741 
	C733.233093,668.108765 733.233093,653.526672 733.552124,638.611084 
z"/>
<path fill="#F4F4F3" opacity="1.000000" stroke="none" 
	d="
M554.581848,639.095215 
	C561.021729,641.307800 563.968384,645.686462 564.357788,651.961243 
	C564.788269,658.898560 562.497681,664.362061 555.412109,667.706909 
	C558.811340,672.666626 562.110596,677.480530 565.987183,683.136841 
	C561.656006,683.136841 558.378540,683.307434 555.137512,683.038940 
	C554.084961,682.951843 552.899719,681.894409 552.175049,680.968079 
	C550.747803,679.143799 549.314087,677.226013 548.393188,675.123474 
	C546.072632,669.825439 542.232117,668.180969 536.407227,669.853821 
	C536.407227,673.851685 536.407227,678.077576 536.407227,682.651367 
	C532.934753,682.651367 529.857849,682.651367 526.421631,682.651367 
	C526.421631,668.138733 526.421631,653.448242 526.421631,637.722534 
	C535.787720,638.147644 544.990601,638.565369 554.581848,639.095215 
M536.609863,660.160767 
	C540.420044,660.174011 544.232605,660.277405 548.039612,660.174072 
	C551.555054,660.078491 554.250061,658.722839 554.436829,654.718323 
	C554.625793,650.667419 552.833496,647.814087 548.633850,647.473633 
	C544.562805,647.143555 540.444092,647.402100 535.993652,647.402100 
	C535.993652,651.512878 535.993652,655.455139 536.609863,660.160767 
z"/>
<path fill="#F4F4F3" opacity="1.000000" stroke="none" 
	d="
M656.573242,650.215088 
	C650.280212,645.519592 642.591248,645.270874 637.923096,649.386719 
	C633.209106,653.542969 631.798523,662.383789 634.899597,668.335449 
	C638.086487,674.451782 649.374939,677.614197 654.528687,673.371765 
	C656.218811,671.980469 656.505737,668.884460 657.772644,665.724243 
	C653.192871,665.724243 649.777649,665.724243 646.111206,665.724243 
	C646.111206,662.770264 646.111206,660.346497 646.111206,657.647461 
	C652.760681,657.647461 659.201538,657.647461 666.304382,657.647461 
	C666.304382,663.770081 666.342896,669.865417 666.252014,675.958862 
	C666.241516,676.662048 665.675720,677.566895 665.090149,678.019775 
	C657.458801,683.920776 648.895081,685.500122 639.662231,682.982910 
	C630.851196,680.580750 625.337402,674.826599 623.486511,665.821655 
	C621.344543,655.401123 626.577637,644.161377 635.574646,639.564453 
	C644.809265,634.846130 657.480652,636.623352 665.036194,644.411682 
	C662.247986,646.470459 659.553711,648.459900 656.573242,650.215088 
z"/>
<path fill="#F5F5F4" opacity="1.000000" stroke="none" 
	d="
M680.943054,677.060791 
	C673.787170,668.256348 672.812073,658.880432 677.800964,649.303162 
	C682.502686,640.277344 690.647888,636.408875 700.631409,637.184631 
	C710.587036,637.958374 717.838379,642.967346 721.367798,652.604858 
	C724.744751,661.826172 721.693054,672.854126 714.229065,678.830933 
	C706.199585,685.260559 693.361755,685.836243 684.701965,680.110046 
	C683.458801,679.288147 682.350159,678.262817 680.943054,677.060791 
M691.675781,673.090759 
	C697.463135,676.080566 702.985535,675.679138 707.859375,671.318604 
	C712.595825,667.080872 713.392151,661.476074 711.724976,655.710266 
	C710.161926,650.304810 706.178223,647.147522 700.533020,646.346985 
	C694.673950,645.516235 688.846863,648.873962 686.378235,654.411987 
	C683.440063,661.003296 685.105652,667.612305 691.675781,673.090759 
z"/>
<path fill="#F8F8F8" opacity="1.000000" stroke="none" 
	d="
M473.683075,664.997498 
	C473.683075,655.875549 473.683075,647.253174 473.683075,638.764771 
	C482.023102,638.764771 490.205353,637.827881 498.079559,638.985718 
	C509.708374,640.695740 516.651001,650.724548 515.771729,662.344421 
	C514.935059,673.401123 506.286255,682.255249 495.048309,682.937561 
	C488.105103,683.359192 481.115448,683.015747 473.683075,683.015747 
	C473.683075,677.041260 473.683075,671.269165 473.683075,664.997498 
M483.209869,669.284668 
	C483.297882,670.735901 483.385925,672.187134 483.496735,674.013733 
	C490.845245,674.018311 498.365845,675.915771 503.262299,668.604126 
	C506.621094,663.588623 506.560608,658.028564 503.406067,653.031677 
	C498.636108,645.475952 490.942719,646.962280 483.208832,647.144531 
	C483.208832,654.431274 483.208832,661.377625 483.209869,669.284668 
z"/>
<path fill="#F2F3F3" opacity="1.000000" stroke="none" 
	d="
M431.761292,674.904907 
	C431.760193,677.697266 431.760193,680.002869 431.760193,682.645386 
	C428.327698,682.645386 425.285461,682.645386 422.032654,682.645386 
	C422.032654,668.041992 422.032654,653.445984 422.032654,638.523926 
	C425.141357,638.523926 428.055237,638.523926 431.536224,638.523926 
	C431.536224,644.036133 431.536224,649.612793 431.536224,655.506836 
	C437.997772,655.506836 443.904877,655.506836 450.487732,655.506836 
	C450.487732,649.840698 450.487732,644.104431 450.487732,638.249756 
	C454.113251,638.249756 457.067902,638.249756 460.352356,638.249756 
	C460.352356,653.163452 460.352356,667.889771 460.352356,682.790344 
	C456.968811,682.790344 453.879272,682.790344 450.379028,682.790344 
	C450.379028,676.967712 450.379028,671.364075 450.379028,665.519531 
	C444.078705,665.519531 438.183441,665.519531 431.762360,665.519531 
	C431.762360,668.472778 431.762360,671.445557 431.761292,674.904907 
z"/>
<path fill="#F6F6F6" opacity="1.000000" stroke="none" 
	d="
M353.849701,656.021729 
	C355.779846,656.103088 357.227448,656.184387 358.851013,656.275574 
	C358.851013,659.191956 358.851013,661.783936 358.851013,664.815308 
	C351.598907,664.815308 344.519714,664.815308 337.160950,664.815308 
	C337.160950,667.991455 337.160950,670.747437 337.160950,674.014404 
	C345.218018,674.014404 353.444061,674.014404 362.010803,674.014404 
	C362.010803,677.245605 362.010803,679.975403 362.010803,682.900085 
	C350.446381,682.900085 339.007141,682.900085 327.236847,682.900085 
	C327.236847,668.156921 327.236847,653.451599 327.236847,638.390381 
	C338.648224,638.390381 350.040253,638.390381 361.759705,638.390381 
	C361.759705,641.120361 361.759705,643.866394 361.759705,647.150635 
	C353.600281,647.150635 345.390594,647.150635 336.960541,647.150635 
	C336.960541,650.275574 336.960541,652.871826 336.960541,656.021606 
	C342.483582,656.021606 347.925354,656.021606 353.849701,656.021729 
z"/>
<path fill="#F4F5F3" opacity="1.000000" stroke="none" 
	d="
M518.407776,213.627563 
	C533.583008,240.672897 552.294373,264.269897 577.198730,282.511017 
	C581.599792,285.734589 582.872192,289.813171 582.733948,295.529572 
	C579.751404,293.173859 577.333496,290.908234 574.587891,289.156189 
	C561.696716,280.930145 548.623901,272.984863 535.840820,264.596680 
	C533.161743,262.838684 530.434937,259.976196 529.430176,257.040741 
	C524.127686,241.548645 519.369446,225.870316 514.422363,210.256577 
	C514.875183,210.077118 515.328064,209.897659 515.780945,209.718201 
	C516.596924,210.920303 517.412903,212.122406 518.407776,213.627563 
z"/>
<path fill="#F5F5F3" opacity="1.000000" stroke="none" 
	d="
M607.537537,680.666260 
	C606.302185,675.024475 603.211304,672.830444 597.817566,673.783508 
	C596.201965,674.069031 594.455322,674.068481 592.836304,673.796509 
	C587.135498,672.839050 583.666077,674.665344 581.666565,680.495911 
	C579.924988,685.574585 575.010010,681.959412 570.643372,683.548401 
	C571.961121,680.277405 572.875916,677.915527 573.858826,675.582397 
	C578.638062,664.237976 583.571106,652.955322 588.139160,641.526672 
	C589.410339,638.346313 591.333435,637.771851 594.245117,638.016418 
	C597.071045,638.253784 599.891479,637.267273 601.499451,641.302917 
	C606.482544,653.809814 611.969727,666.115662 617.254272,678.502625 
	C617.767395,679.705322 618.232056,680.928711 619.401428,683.842346 
	C614.732910,682.714050 611.229980,681.867493 607.537537,680.666260 
M590.992493,658.557739 
	C590.213745,660.496399 589.434937,662.435120 588.572815,664.581238 
	C593.026123,664.581238 596.848267,664.581238 601.095581,664.581238 
	C598.962097,659.623535 597.030029,655.133789 594.703308,649.727112 
	C593.270813,653.062683 592.251953,655.435120 590.992493,658.557739 
z"/>
<path fill="#F4F4F3" opacity="1.000000" stroke="none" 
	d="
M385.346954,671.769348 
	C392.874908,677.106995 399.397675,675.118225 406.094452,669.493774 
	C408.001587,671.805969 409.877869,674.080688 411.837463,676.456482 
	C407.347992,684.785217 388.804779,687.196716 379.018707,679.240540 
	C368.828827,670.955933 367.662415,654.440002 376.738922,644.415405 
	C385.885132,634.313782 402.414429,634.447998 412.469055,644.997253 
	C410.229431,646.878113 407.977112,648.769592 406.323853,650.158081 
	C401.965729,648.893616 397.559082,646.782104 393.047150,646.526001 
	C387.906158,646.234314 383.972260,649.416321 382.064392,654.441772 
	C379.688538,660.699951 380.262970,666.502869 385.346954,671.769348 
z"/>
<path fill="#F5F5F5" opacity="1.000000" stroke="none" 
	d="
M303.208008,664.516602 
	C303.203400,670.792419 303.203400,676.601074 303.203400,682.717285 
	C299.899017,682.717285 296.827759,682.717285 293.278137,682.717285 
	C293.278137,671.193848 293.278137,659.622314 293.278137,647.611938 
	C288.605927,647.611938 284.370483,647.611938 279.726654,647.611938 
	C279.726654,644.324768 279.726654,641.473267 279.726654,638.341980 
	C292.265076,638.341980 304.674225,638.341980 317.441650,638.341980 
	C317.441650,641.185608 317.441650,643.944519 317.441650,647.428711 
	C312.885284,647.428711 308.197388,647.428711 303.212585,647.428711 
	C303.212585,653.445740 303.212585,658.747559 303.208008,664.516602 
z"/>
<path fill="#F8F8F8" opacity="1.000000" stroke="none" 
	d="
M483.978607,403.984253 
	C487.163391,402.193298 490.035675,400.583008 492.680573,399.100189 
	C497.559174,404.738770 502.101562,409.988770 506.601990,415.190277 
	C504.502350,421.860718 502.324860,428.778473 499.967743,436.266846 
	C488.828369,431.423950 479.466309,423.986328 471.677612,413.476562 
	C475.843658,410.240723 479.754913,407.202820 483.978607,403.984253 
z"/>
<path fill="#F2F3F3" opacity="1.000000" stroke="none" 
	d="
M503.225830,403.812134 
	C501.671631,401.833038 500.328247,400.136444 499.051636,398.391022 
	C498.781128,398.021149 498.754364,397.472961 498.513092,396.664581 
	C508.108215,392.339111 518.098694,392.207123 525.767151,392.964233 
	C521.214111,397.888824 515.585571,403.976624 509.479187,410.581329 
	C508.083984,409.073608 505.772217,406.575409 503.225830,403.812134 
z"/>
<path fill="#252726" opacity="1.000000" stroke="none" 
	d="
M458.967468,555.831055 
	C444.804718,540.849365 433.845154,523.617615 427.094910,503.823334 
	C426.346283,501.628143 425.403717,499.496246 424.723694,497.281982 
	C424.486694,496.510223 424.771057,495.578308 424.817322,494.719543 
	C425.692963,495.180908 426.778229,495.459290 427.385529,496.154907 
	C427.997406,496.855865 428.185913,497.955872 428.472137,498.907379 
	C434.671906,519.516724 445.958862,537.173889 460.079193,553.573364 
	C459.794525,554.429871 459.409912,554.960144 458.967468,555.831055 
z"/>
<path fill="#303132" opacity="1.000000" stroke="none" 
	d="
M462.045715,537.933899 
	C452.579865,528.255310 446.263367,516.844421 441.843323,504.312286 
	C449.033600,515.115173 456.223877,525.918091 463.542786,537.031555 
	C463.309265,537.471191 462.947083,537.600220 462.045715,537.933899 
z"/>
<path fill="#0E0E0E" opacity="1.000000" stroke="none" 
	d="
M499.023315,287.397034 
	C498.474945,287.714020 497.828064,287.708740 497.043823,287.496582 
	C497.579224,287.218048 498.252014,287.146362 499.023315,287.397034 
z"/>
<path fill="#FAFAFA" opacity="1.000000" stroke="none" 
	d="
M584.835938,552.295044 
	C584.771301,552.319275 585.037598,552.130066 585.037598,552.130066 
	C585.037598,552.130066 584.795654,552.190613 584.894592,552.281677 
	C584.993530,552.372742 584.900574,552.270813 584.835938,552.295044 
z"/>
<path fill="#252726" opacity="1.000000" stroke="none" 
	d="
M410.911072,430.978333 
	C409.604034,436.385620 408.095032,441.351318 407.325806,446.429047 
	C407.012299,448.498688 407.911957,451.021881 408.955200,452.965332 
	C410.599640,456.028717 410.882904,458.797119 408.089569,460.993073 
	C405.472992,463.050049 402.664673,462.555359 400.666962,459.847351 
	C398.567627,457.001587 399.089447,454.383270 401.641327,451.867157 
	C402.895599,450.630554 403.985779,448.927582 404.455200,447.242096 
	C408.422729,432.996765 411.441345,418.432587 416.285706,404.499878 
	C422.264191,387.305298 432.662994,372.944702 448.614960,363.266815 
	C449.877441,362.500885 451.255798,361.925964 452.580292,361.262238 
	C452.866302,361.696259 453.152313,362.130280 453.438324,362.564270 
	C452.444580,363.443970 451.546814,364.473541 450.442535,365.180664 
	C435.253540,374.907135 425.211487,388.678864 419.142822,405.429443 
	C416.143036,413.709320 413.701080,422.191315 410.911072,430.978333 
M402.298767,455.637115 
	C403.457703,456.747070 404.616638,457.857025 405.775543,458.966980 
	C406.280151,457.769379 406.784760,456.571808 407.289368,455.374207 
	C405.733643,455.223328 404.177948,455.072449 402.298767,455.637115 
z"/>
<path fill="#0E0E0E" opacity="1.000000" stroke="none" 
	d="
M613.955750,340.042664 
	C617.156860,343.521393 620.091064,346.764587 623.025208,350.007812 
	C622.757080,350.295715 622.488892,350.583649 622.220764,350.871552 
	C616.077576,349.686798 609.880005,348.715332 603.828735,347.170532 
	C602.272827,346.773315 600.701904,344.789337 599.950928,343.159607 
	C595.951111,334.479736 590.293701,327.465210 581.517029,323.070190 
	C593.985107,325.322876 603.382263,333.458710 613.955750,340.042664 
z"/>
<path fill="#252726" opacity="1.000000" stroke="none" 
	d="
M436.268585,479.515076 
	C437.870605,486.871185 439.417969,493.795990 440.965363,500.720764 
	C440.521149,500.918152 440.076935,501.115540 439.632690,501.312927 
	C438.737244,499.447388 437.345093,497.662201 437.028259,495.703125 
	C435.199432,484.394531 433.674438,473.037079 431.905151,461.718262 
	C431.665436,460.184845 430.958374,458.458252 429.901581,457.371948 
	C427.397736,454.798340 424.800476,452.622223 426.747559,448.391388 
	C428.717896,444.110046 430.009674,440.017761 436.519958,441.682709 
	C442.033478,443.092804 444.093201,444.732300 443.724487,450.609497 
	C443.452118,454.951263 439.860321,458.212769 434.635040,458.275787 
	C435.163452,465.239410 435.688690,472.161591 436.268585,479.515076 
M438.870605,445.349121 
	C436.628693,445.091614 434.386780,444.834076 431.917542,444.550446 
	C430.908600,446.693207 429.889099,448.858368 428.862701,451.038147 
	C431.168243,454.289581 434.298065,455.842987 437.868896,454.327484 
	C441.968903,452.587402 439.683350,448.977081 438.870605,445.349121 
z"/>
<path fill="#303132" opacity="1.000000" stroke="none" 
	d="
M442.622742,383.783508 
	C441.471130,385.385590 440.564362,386.711029 439.657623,388.036469 
	C439.973206,388.506256 440.288818,388.976044 440.604401,389.445831 
	C441.911835,388.625702 443.384583,387.985107 444.500702,386.957306 
	C454.116730,378.102173 464.374542,370.219635 476.666321,365.371124 
	C478.226807,364.755585 479.890106,364.400696 481.505768,363.925018 
	C481.674438,364.365936 481.843140,364.806824 482.011810,365.247742 
	C480.616730,365.906616 479.128662,366.420746 477.841431,367.247589 
	C468.636078,373.160797 459.363190,378.980164 450.352081,385.178711 
	C447.136169,387.390900 444.529602,390.243439 444.648193,395.016357 
	C444.737885,398.626099 440.876129,400.721924 437.391113,399.860687 
	C433.917603,399.002258 431.177979,394.660339 433.239777,391.682251 
	C437.659912,385.297668 442.939148,379.507843 447.866577,373.474457 
	C448.485107,373.977020 449.103638,374.479584 449.722137,374.982147 
	C447.437286,377.823730 445.152435,380.665314 442.622742,383.783508 
M436.945251,391.352051 
	C434.767303,393.706940 435.694946,395.717560 438.129578,396.699799 
	C438.955719,397.033081 441.450348,395.582275 441.684875,394.592072 
	C442.402710,391.561005 440.313538,390.720367 436.945251,391.352051 
z"/>
<path fill="#303132" opacity="1.000000" stroke="none" 
	d="
M416.183289,369.238464 
	C409.917145,378.860321 403.790863,388.162476 398.013245,397.676392 
	C397.169067,399.066467 397.485291,401.659088 398.139893,403.358063 
	C399.515503,406.928375 398.633606,410.322113 395.352295,411.745087 
	C392.175171,413.122925 388.138763,411.515411 387.007782,408.421936 
	C385.799194,405.116180 387.675537,401.918335 391.023468,400.417999 
	C392.864868,399.592712 394.860504,398.095367 395.768311,396.366394 
	C402.142456,384.226227 409.136169,372.529755 418.773743,362.652252 
	C421.235504,360.129242 424.149780,358.047791 426.856171,355.763458 
	C427.267426,356.187042 427.678650,356.610596 428.089905,357.034149 
	C424.205109,361.018433 420.320282,365.002686 416.183289,369.238464 
M391.556763,409.142029 
	C394.284790,409.675995 396.062897,408.476837 395.543518,405.812653 
	C395.346375,404.801605 392.591583,403.277679 391.580597,403.632812 
	C388.904999,404.572845 389.084106,406.751282 391.556763,409.142029 
z"/>
<path fill="#292A2A" opacity="1.000000" stroke="none" 
	d="
M423.326599,424.021484 
	C423.899689,425.719666 425.359467,427.708771 424.912109,429.072144 
	C418.771515,447.787445 418.278717,466.753662 421.786804,485.969574 
	C421.897186,486.574219 421.854370,487.206787 420.716553,488.421082 
	C419.812561,486.962097 418.260773,485.565491 418.113281,484.033691 
	C417.353699,476.145660 416.382782,468.208313 416.585114,460.316345 
	C416.801270,451.885223 418.369873,443.495483 419.031891,435.062866 
	C419.148743,433.574768 417.714233,431.964874 417.232208,429.920166 
	C420.958252,429.291931 423.491333,428.118042 423.326599,424.021484 
z"/>
<path fill="#292A2A" opacity="1.000000" stroke="none" 
	d="
M448.953674,325.916656 
	C454.882294,324.281799 460.438110,322.767883 465.993927,321.253967 
	C466.188660,321.937958 466.383392,322.621918 466.578125,323.305908 
	C465.544800,323.689240 464.540802,324.262817 463.473724,324.427338 
	C447.610779,326.873077 434.218079,334.905548 421.014038,343.294922 
	C419.996368,343.941498 419.248871,345.870239 419.293274,347.171722 
	C419.429352,351.159943 418.019073,353.868500 413.873352,353.951721 
	C410.289948,354.023651 407.737518,351.988770 407.806427,348.163116 
	C407.879578,344.103363 410.369843,342.561279 414.393341,342.450592 
	C416.527374,342.391907 418.746490,341.359955 420.723694,340.363556 
	C430.048004,335.664734 439.301880,330.826263 448.953674,325.916656 
M411.469574,349.921722 
	C413.419006,351.652313 415.334961,351.550293 416.006378,348.991394 
	C416.270081,347.986389 414.695557,346.499115 413.958130,345.231476 
	C412.995453,346.559692 412.032806,347.887909 411.469574,349.921722 
z"/>
<path fill="#2D2D2D" opacity="1.000000" stroke="none" 
	d="
M451.388000,351.924927 
	C455.262512,353.277344 452.340973,354.151123 451.356354,354.773773 
	C447.706757,357.081543 444.036896,359.389740 440.206909,361.373993 
	C424.833221,369.338715 415.101227,382.205902 408.219025,397.640839 
	C407.419800,399.433411 406.247833,401.059814 405.248657,402.763214 
	C404.872894,402.590607 404.497162,402.417969 404.121429,402.245361 
	C404.321320,401.204254 404.330627,400.078583 404.749512,399.134705 
	C411.667725,383.545624 420.379211,369.435486 435.996338,360.916901 
	C441.095673,358.135406 446.007111,355.009491 451.388000,351.924927 
z"/>
<path fill="#1E1E1E" opacity="1.000000" stroke="none" 
	d="
M605.270142,368.535095 
	C599.260071,366.990875 593.510071,365.936707 587.997009,364.150787 
	C578.275696,361.001587 573.145996,351.483673 575.505981,339.735596 
	C577.649963,354.087067 586.600525,359.969360 598.237000,363.387848 
	C603.377441,364.897980 608.218872,367.426086 613.196106,369.492035 
	C613.007751,369.995148 612.819458,370.498260 612.631165,371.001373 
	C610.299744,370.232788 607.968384,369.464203 605.270142,368.535095 
z"/>
<path fill="#303132" opacity="1.000000" stroke="none" 
	d="
M440.950073,561.414429 
	C437.548584,558.389832 434.297455,555.565979 431.436981,552.390259 
	C428.625397,549.268799 426.655151,545.688965 421.425171,545.546692 
	C417.980286,545.452942 415.775116,540.621643 417.067719,537.393677 
	C418.392242,534.086060 421.126190,532.628906 424.656006,533.456421 
	C428.649261,534.392639 430.421600,536.761841 429.590546,541.132629 
	C429.246765,542.940613 429.570099,545.392700 430.594116,546.842834 
	C433.257599,550.614868 436.546509,553.938904 439.432739,557.563599 
	C440.303619,558.657410 440.672638,560.150757 440.950073,561.414429 
M421.875000,542.704590 
	C423.479279,542.009216 425.083527,541.313782 426.687805,540.618408 
	C426.127960,539.382629 425.878479,537.597168 424.924896,537.058594 
	C423.876709,536.466614 422.180389,537.022217 420.766449,537.077820 
	C420.916809,538.802246 421.067169,540.526733 421.875000,542.704590 
z"/>
<path fill="#303132" opacity="1.000000" stroke="none" 
	d="
M401.888428,488.176910 
	C401.662750,483.390411 401.464905,479.049591 401.267090,474.708740 
	C402.038666,474.607025 402.810242,474.505310 403.581818,474.403595 
	C403.736572,491.252441 407.528870,507.283997 414.372589,523.539490 
	C409.120880,520.844788 404.261230,506.000061 401.888428,488.176910 
z"/>
<path fill="#303132" opacity="1.000000" stroke="none" 
	d="
M423.302124,424.039948 
	C423.491333,428.118042 420.958252,429.291931 416.945709,429.577789 
	C416.423187,429.726471 416.379181,429.702911 416.757355,429.413239 
	C418.712891,426.591187 417.216309,426.085938 415.078156,426.003815 
	C415.832764,425.312134 416.587402,424.620453 417.953796,424.257263 
	C420.153198,424.408295 421.740875,424.230804 423.328522,424.053314 
	C423.328522,424.053314 423.277618,424.058411 423.302124,424.039948 
z"/>
<path fill="#292A2A" opacity="1.000000" stroke="none" 
	d="
M414.943665,426.309082 
	C417.216309,426.085938 418.712891,426.591187 416.746613,429.390656 
	C415.841522,428.643280 415.325348,427.628845 414.943665,426.309082 
z"/>
<path fill="#292A2A" opacity="1.000000" stroke="none" 
	d="
M423.087769,423.885315 
	C421.740875,424.230804 420.153198,424.408295 418.283875,424.297241 
	C419.617126,423.911560 421.232086,423.814423 423.087769,423.885315 
z"/>
<path fill="#010101" opacity="1.000000" stroke="none" 
	d="
M367.993347,445.990631 
	C368.118469,445.784180 368.235443,445.566803 368.352478,445.349426 
	C368.382355,445.634155 368.412231,445.918884 368.203674,446.076660 
	C367.965271,445.949738 367.985229,445.979706 367.993347,445.990631 
z"/>
<path fill="#FAFAFA" opacity="1.000000" stroke="none" 
	d="
M528.005310,301.963013 
	C527.894531,301.813599 527.965454,301.456757 528.262085,301.196503 
	C528.387573,301.447235 528.287354,301.601410 528.005310,301.963013 
z"/>
<path fill="#080808" opacity="1.000000" stroke="none" 
	d="
M536.301758,659.779114 
	C535.993652,655.455139 535.993652,651.512878 535.993652,647.402100 
	C540.444092,647.402100 544.562805,647.143555 548.633850,647.473633 
	C552.833496,647.814087 554.625793,650.667419 554.436829,654.718323 
	C554.250061,658.722839 551.555054,660.078491 548.039612,660.174072 
	C544.232605,660.277405 540.420044,660.174011 536.301758,659.779114 
z"/>
<path fill="#080808" opacity="1.000000" stroke="none" 
	d="
M691.335999,672.913452 
	C685.105652,667.612305 683.440063,661.003296 686.378235,654.411987 
	C688.846863,648.873962 694.673950,645.516235 700.533020,646.346985 
	C706.178223,647.147522 710.161926,650.304810 711.724976,655.710266 
	C713.392151,661.476074 712.595825,667.080872 707.859375,671.318604 
	C702.985535,675.679138 697.463135,676.080566 691.335999,672.913452 
z"/>
<path fill="#080808" opacity="1.000000" stroke="none" 
	d="
M483.209351,668.804321 
	C483.208832,661.377625 483.208832,654.431274 483.208832,647.144531 
	C490.942719,646.962280 498.636108,645.475952 503.406067,653.031677 
	C506.560608,658.028564 506.621094,663.588623 503.262299,668.604126 
	C498.365845,675.915771 490.845245,674.018311 483.496735,674.013733 
	C483.385925,672.187134 483.297882,670.735901 483.209351,668.804321 
z"/>
<path fill="#1E1E1E" opacity="1.000000" stroke="none" 
	d="
M591.112793,658.182617 
	C592.251953,655.435120 593.270813,653.062683 594.703308,649.727112 
	C597.030029,655.133789 598.962097,659.623535 601.095581,664.581238 
	C596.848267,664.581238 593.026123,664.581238 588.572815,664.581238 
	C589.434937,662.435120 590.213745,660.496399 591.112793,658.182617 
z"/>
<path fill="#E9EAE9" opacity="1.000000" stroke="none" 
	d="
M402.460510,455.279327 
	C404.177948,455.072449 405.733643,455.223328 407.289368,455.374207 
	C406.784760,456.571808 406.280151,457.769379 405.775543,458.966980 
	C404.616638,457.857025 403.457703,456.747070 402.460510,455.279327 
z"/>
<path fill="#E9EAE9" opacity="1.000000" stroke="none" 
	d="
M439.142090,445.696320 
	C439.683350,448.977081 441.968903,452.587402 437.868896,454.327484 
	C434.298065,455.842987 431.168243,454.289581 428.862701,451.038147 
	C429.889099,448.858368 430.908600,446.693207 431.917542,444.550446 
	C434.386780,444.834076 436.628693,445.091614 439.142090,445.696320 
z"/>
<path fill="#E9EAE9" opacity="1.000000" stroke="none" 
	d="
M437.293671,391.140869 
	C440.313538,390.720367 442.402710,391.561005 441.684875,394.592072 
	C441.450348,395.582275 438.955719,397.033081 438.129578,396.699799 
	C435.694946,395.717560 434.767303,393.706940 437.293671,391.140869 
z"/>
<path fill="#E9EAE9" opacity="1.000000" stroke="none" 
	d="
M391.179077,408.968262 
	C389.084106,406.751282 388.904999,404.572845 391.580597,403.632812 
	C392.591583,403.277679 395.346375,404.801605 395.543518,405.812653 
	C396.062897,408.476837 394.284790,409.675995 391.179077,408.968262 
z"/>
<path fill="#E9EAE9" opacity="1.000000" stroke="none" 
	d="
M411.269836,349.568909 
	C412.032806,347.887909 412.995453,346.559692 413.958130,345.231476 
	C414.695557,346.499115 416.270081,347.986389 416.006378,348.991394 
	C415.334961,351.550293 413.419006,351.652313 411.269836,349.568909 
z"/>
<path fill="#E9EAE9" opacity="1.000000" stroke="none" 
	d="
M421.546265,542.477905 
	C421.067169,540.526733 420.916809,538.802246 420.766449,537.077820 
	C422.180389,537.022217 423.876709,536.466614 424.924896,537.058594 
	C425.878479,537.597168 426.127960,539.382629 426.687805,540.618408 
	C425.083527,541.313782 423.479279,542.009216 421.546265,542.477905 
z"/>
</svg>